<?xml version="1.0" standalone="no"?>
<!DOCTYPE svg PUBLIC "-//W3C//DTD SVG 20010904//EN"
 "http://www.w3.org/TR/2001/REC-SVG-20010904/DTD/svg10.dtd">
<svg version="1.0" xmlns="http://www.w3.org/2000/svg"
 width="72.000000pt" height="72.000000pt" viewBox="0 0 72.000000 72.000000"
 preserveAspectRatio="xMidYMid meet">
<metadata>
Created by potrace 1.11, written by Peter Selinger 2001-2013
</metadata>
<g transform="translate(0.000000,72.000000) scale(0.100000,-0.100000)"
fill="#000000" stroke="none">
<path d="M606 678 c3 -5 -5 -12 -18 -17 -13 -6 -17 -10 -10 -10 6 -1 12 -6 12
-12 0 -6 -7 -8 -16 -5 -14 5 -15 4 -5 -8 10 -12 6 -21 -17 -47 -28 -32 -31
-33 -56 -19 -25 13 -29 12 -57 -17 l-30 -30 -56 19 c-68 22 -94 22 -162 2
-106 -31 -192 -155 -187 -266 4 -61 48 -150 94 -188 85 -70 190 -83 288 -35
115 56 173 187 137 309 l-15 49 37 37 c32 32 34 38 20 50 -8 7 -15 18 -15 24
0 21 86 84 98 72 3 -3 -1 -6 -8 -6 -7 0 -11 -2 -8 -5 8 -9 38 6 32 16 -3 5 0
9 6 9 6 0 8 5 5 10 -3 6 -1 10 6 10 7 0 9 3 6 6 -3 4 -1 16 5 28 11 20 10 20
-7 6 -17 -14 -18 -13 -12 3 4 11 3 16 -3 12 -6 -3 -10 -1 -10 5 0 5 -13 9 -29
8 -16 -1 -27 -6 -25 -10z"/>
</g>
</svg>
